<?xml version="1.0" encoding="UTF-8" standalone="no"?>
<!-- Created with Inkscape (http://www.inkscape.org/) -->

<svg
   xmlns:dc="http://purl.org/dc/elements/1.1/"
   xmlns:cc="http://creativecommons.org/ns#"
   xmlns:rdf="http://www.w3.org/1999/02/22-rdf-syntax-ns#"
   xmlns:svg="http://www.w3.org/2000/svg"
   xmlns="http://www.w3.org/2000/svg"
   xmlns:sodipodi="http://sodipodi.sourceforge.net/DTD/sodipodi-0.dtd"
   xmlns:inkscape="http://www.inkscape.org/namespaces/inkscape"
   width="100mm"
   height="40.320896mm"
   viewBox="0 0 99.999987 40.320897"
   version="1.1"
   id="svg8"
   inkscape:version="0.92.2 (5c3e80d, 2017-08-06)"
   sodipodi:docname="Logo.svg"
   inkscape:export-xdpi="132.22"
   inkscape:export-ydpi="132.22">
  <metadata
     id="metadata2619">
    <rdf:RDF>
      <cc:Work
         rdf:about="">
        <dc:format>image/svg+xml</dc:format>
        <dc:type
           rdf:resource="http://purl.org/dc/dcmitype/StillImage" />
        <dc:title></dc:title>
      </cc:Work>
    </rdf:RDF>
  </metadata>
  <defs
     id="defs2" />
  <sodipodi:namedview
     id="base"
     pagecolor="#ffffff"
     bordercolor="#666666"
     borderopacity="1.0"
     inkscape:pageopacity="0.0"
     inkscape:pageshadow="2"
     inkscape:zoom="2.8"
     inkscape:cx="222.70084"
     inkscape:cy="48.989812"
     inkscape:document-units="mm"
     inkscape:current-layer="layer1"
     showgrid="false"
     inkscape:window-width="1920"
     inkscape:window-height="1051"
     inkscape:window-x="-9"
     inkscape:window-y="-9"
     inkscape:window-maximized="1"
     fit-margin-top="0.2"
     fit-margin-left="0"
     fit-margin-right="0"
     fit-margin-bottom="0.2" />
  <g
     inkscape:label="Layer 1"
     inkscape:groupmode="layer"
     id="QueueCue"
     transform="translate(-45.004234,94.321468)">
    <path
       inkscape:connector-curvature="0"
       d="m 114.4659,-79.95508 c -1.67595,0 -3.02592,0.531891 -4.05012,1.595987 -1.02419,1.050794 -1.5364,2.434253 -1.5364,4.150108 0,1.662649 0.52533,2.999278 1.57613,4.010169 1.06409,1.010891 2.45411,1.516311 4.16997,1.516311 1.03749,0 1.97526,-0.212666 2.81323,-0.638305 0.83798,-0.425637 1.49634,-1.00436 1.97518,-1.735926 l -2.63357,-1.276835 c -0.55865,0.66506 -1.29687,0.997633 -2.21465,0.997633 -1.17051,0 -1.86213,-0.598631 -2.07495,-1.795739 h 7.44208 c 0.0665,-0.425638 0.0998,-0.877892 0.0998,-1.356735 0,-1.649349 -0.51221,-2.972855 -1.5364,-3.970444 -1.02419,-0.99759 -2.36761,-1.496224 -4.03026,-1.496224 z m -17.112112,0.199526 v 6.803541 c 0,1.290217 0.36583,2.327529 1.097396,3.112299 0.744868,0.77147 1.722456,1.157209 2.932866,1.157209 1.26361,0 2.29458,-0.445467 3.09266,-1.336648 l 0.0598,1.137122 h 3.25224 v -10.873523 h -3.39195 v 6.304724 c 0,0.558651 -0.16629,1.010906 -0.49882,1.356737 -0.33253,0.33253 -0.77144,0.498816 -1.31679,0.498816 -0.55865,0 -1.00411,-0.166286 -1.33664,-0.498816 -0.33253,-0.345831 -0.49882,-0.798086 -0.49882,-1.356737 v -6.304724 z m 17.112112,2.453907 c 1.104,0 1.76915,0.631889 1.99527,1.895502 h -3.95058 c 0.22612,-1.263613 0.87792,-1.895502 1.95531,-1.895502 z"
       style="font-style:normal;font-variant:normal;font-weight:800;font-stretch:normal;font-family:'Bw Modelica Cyrillic DEMO';-inkscape-font-specification:'Bw Modelica Cyrillic DEMO Ultra-Bold';fill:#000000;fill-opacity:0.29145729;stroke-width:0.68017483"
       id="ue" />
    <path
       id="QueCue"
       d="m 59.559974,-94.121468 c -3.923399,0 -7.084505,1.176949 -9.483382,3.530988 -2.398879,2.331621 -3.598251,5.414248 -3.598251,9.247969 0,3.833721 1.199372,6.927784 3.598251,9.281824 2.398877,2.331619 5.559983,3.497358 9.483382,3.497358 2.645492,0 4.988405,-0.57177 7.028572,-1.715162 l 1.177072,1.378855 h 5.616089 l -3.598478,-4.001816 c 1.883232,-2.264362 2.824973,-5.078146 2.824973,-8.441059 0,-3.833721 -1.199599,-6.916348 -3.598477,-9.247969 -2.398875,-2.354039 -5.548771,-3.530988 -9.449751,-3.530988 z m 0,3.934556 c 2.443716,0 4.40545,0.818416 5.885132,2.455035 1.502102,1.614198 2.253251,3.743874 2.253251,6.389366 0,1.838392 -0.38118,3.464015 -1.143441,4.87644 l -1.580639,-1.782424 h -5.380672 l 4.102709,4.708061 c -1.210649,0.695002 -2.589401,1.04255 -4.13634,1.04255 -2.443717,0 -4.416661,-0.807206 -5.918763,-2.421406 -1.502101,-1.636618 -2.253026,-3.77773 -2.253026,-6.423221 0,-2.645492 0.750925,-4.775168 2.253026,-6.389366 1.502102,-1.636619 3.475046,-2.455035 5.918763,-2.455035 z m 31.088232,10.231832 c -1.675951,0 -3.025927,0.531892 -4.05012,1.595988 -1.024192,1.050794 -1.5364,2.434253 -1.5364,4.150109 0,1.662648 0.525332,2.999277 1.576125,4.010168 1.064097,1.010892 2.454118,1.516311 4.16997,1.516311 1.037494,0 1.975261,-0.212665 2.813237,-0.638304 0.837972,-0.425638 1.496334,-1.004361 1.975177,-1.735926 l -2.633571,-1.276836 c -0.558651,0.665062 -1.296873,0.997634 -2.214655,0.997634 -1.170505,0 -1.862122,-0.598631 -2.074941,-1.795739 H 96.1151 c 0.0665,-0.425638 0.09976,-0.877893 0.09976,-1.356735 0,-1.64935 -0.512208,-2.972858 -1.5364,-3.970445 -1.024192,-0.997589 -2.367608,-1.496225 -4.030257,-1.496225 z m 19.206924,0.196368 c -3.94582,0 -7.12934,1.165964 -9.55065,3.497584 -2.421297,2.33162 -3.63188,5.403035 -3.63188,9.214338 0,3.85614 1.210583,6.961189 3.63188,9.315229 2.44373,2.354039 5.63847,3.530989 9.58428,3.530989 4.59598,0 8.11584,-1.670243 10.55956,-5.010737 l -3.19468,-2.858376 c -1.70388,2.623072 -4.12527,3.934556 -7.26399,3.934556 -2.51098,0 -4.53997,-0.80698 -6.08691,-2.421179 -1.54695,-1.636618 -2.32029,-3.78894 -2.32029,-6.456852 0,-2.645492 0.76215,-4.775393 2.28665,-6.389592 1.52452,-1.614199 3.54231,-2.421404 6.05329,-2.421404 2.89211,0 5.14533,1.03143 6.75952,3.094017 l 2.99291,-3.026756 c -2.46614,-2.667912 -5.73936,-4.001817 -9.81969,-4.001817 z m -36.319041,0.0031 v 6.803542 c 0,1.290216 0.365831,2.327528 1.097398,3.112297 0.744867,0.77147 1.722451,1.15721 2.93286,1.15721 1.263615,0 2.294591,-0.445467 3.092663,-1.336648 l 0.05981,1.137122 h 3.25224 V -79.75563 h -3.391952 v 6.304724 c 0,0.558651 -0.166287,1.010905 -0.498818,1.356737 -0.33253,0.332529 -0.771435,0.498814 -1.316784,0.498814 -0.558652,0 -1.004119,-0.166285 -1.336649,-0.498814 -0.332529,-0.345832 -0.498815,-0.798086 -0.498815,-1.356737 v -6.304724 z m 17.112117,2.453907 c 1.104,0 1.769145,0.631889 1.995266,1.895502 h -3.950583 c 0.226122,-1.263613 0.87792,-1.895502 1.955317,-1.895502 z m 47.635404,11.709322 c -1.67596,0 -3.02593,0.532117 -4.05012,1.596212 -1.0242,1.050796 -1.5364,2.434028 -1.5364,4.149883 0,1.662649 0.52532,2.999503 1.57612,4.010395 1.0641,1.01089 2.45411,1.516312 4.16997,1.516312 1.0375,0 1.97526,-0.212892 2.81324,-0.63853 0.83797,-0.425639 1.49633,-1.004136 1.97518,-1.735702 l -2.63358,-1.277061 c -0.55865,0.665061 -1.29686,0.997634 -2.21465,0.997634 -1.1705,0 -1.86213,-0.598632 -2.07494,-1.795739 h 7.44207 c 0.0665,-0.42564 0.0998,-0.877894 0.0998,-1.356737 0,-1.649348 -0.51221,-2.972628 -1.5364,-3.970219 -1.02419,-0.997588 -2.36761,-1.496448 -4.03025,-1.496448 z m -17.11212,0.199527 v 6.803542 c 0,1.290216 0.36583,2.327754 1.0974,3.112524 0.74486,0.771469 1.72245,1.157209 2.93286,1.157209 1.26361,0 2.29459,-0.445692 3.09266,-1.336873 l 0.0599,1.137346 h 3.25223 v -10.873748 h -3.39194 v 6.304724 c 0,0.558649 -0.16629,1.010904 -0.49882,1.356736 -0.33253,0.33253 -0.77144,0.498817 -1.31678,0.498817 -0.55865,0 -1.00413,-0.166287 -1.33666,-0.498817 -0.33252,-0.345832 -0.49881,-0.798087 -0.49881,-1.356736 v -6.304724 z m 17.11212,2.454132 c 1.104,0 1.76915,0.631662 1.99526,1.895276 h -3.95058 c 0.22612,-1.263614 0.87792,-1.895276 1.95532,-1.895276 z" />
  </g>
</svg>
