<?xml version="1.0" encoding="UTF-8" standalone="no"?>
<!-- Created with Inkscape (http://www.inkscape.org/) -->

<svg
   xmlns:dc="http://purl.org/dc/elements/1.1/"
   xmlns:cc="http://creativecommons.org/ns#"
   xmlns:rdf="http://www.w3.org/1999/02/22-rdf-syntax-ns#"
   xmlns:svg="http://www.w3.org/2000/svg"
   xmlns="http://www.w3.org/2000/svg"
   xmlns:sodipodi="http://sodipodi.sourceforge.net/DTD/sodipodi-0.dtd"
   xmlns:inkscape="http://www.inkscape.org/namespaces/inkscape"
   width="200mm"
   height="200mm"
   viewBox="0 0 200 200"
   version="1.1"
   id="svg8"
   inkscape:version="0.92.2 (5c3e80d, 2017-08-06)"
   sodipodi:docname="cue.svg">
  <defs
     id="defs2" />
  <sodipodi:namedview
     id="base"
     pagecolor="#ffffff"
     bordercolor="#666666"
     borderopacity="1.0"
     inkscape:pageopacity="0.0"
     inkscape:pageshadow="2"
     inkscape:zoom="0.24748737"
     inkscape:cx="-428.61724"
     inkscape:cy="817.81836"
     inkscape:document-units="mm"
     inkscape:current-layer="layer1"
     showgrid="false"
     fit-margin-top="0"
     fit-margin-left="0"
     fit-margin-right="0"
     fit-margin-bottom="0"
     inkscape:window-width="1920"
     inkscape:window-height="1051"
     inkscape:window-x="-9"
     inkscape:window-y="-9"
     inkscape:window-maximized="1" />
  <metadata
     id="metadata5">
    <rdf:RDF>
      <cc:Work
         rdf:about="">
        <dc:format>image/svg+xml</dc:format>
        <dc:type
           rdf:resource="http://purl.org/dc/dcmitype/StillImage" />
        <dc:title />
      </cc:Work>
    </rdf:RDF>
  </metadata>
  <g
     inkscape:label="Layer 1"
     inkscape:groupmode="layer"
     id="layer1"
     transform="translate(-392.58436,-97.874616)">
    <path
       sodipodi:type="inkscape:offset"
       inkscape:radius="-1.4465553"
       inkscape:original="M 646.15625 320.8125 C 645.42033 320.81954 644.68323 320.96496 644.12891 321.24805 C 643.25499 321.69436 642.39972 322.58481 641.91992 323.54883 C 641.63148 324.12841 641.61682 326.32961 641.57422 376.6582 C 641.53359 424.5919 641.55449 429.2369 641.79883 429.99414 C 642.40707 431.87922 644.16938 433.14748 646.18164 433.14648 C 647.40071 433.1458 648.12294 432.90089 649.08398 432.16406 C 649.44894 431.88424 655.86971 426.53726 663.35156 420.2832 C 691.64203 396.63525 706.05948 384.62109 706.14648 384.62109 C 706.19598 384.62109 706.23633 394.65444 706.23633 406.91602 C 706.23633 431.69712 706.16828 430.18532 707.34375 431.55859 C 707.99783 432.32274 709.31618 433.0168 710.39844 433.16406 C 711.39982 433.30031 712.87631 432.8694 713.77539 432.17969 C 714.15323 431.88984 722.36517 425.04563 732.02344 416.9707 C 741.68172 408.89578 755.45145 397.39299 762.62305 391.4082 L 775.66211 380.52734 L 775.75586 398.79102 C 775.84048 415.2781 775.87802 417.19907 776.14062 418.54688 C 777.35865 424.79825 781.37477 430.35867 786.74219 433.22656 C 789.25437 434.56885 790.94016 435.15921 793.66211 435.64648 C 795.47073 435.97025 799.44976 435.84474 801.45898 435.40039 C 804.054 434.82648 807.06233 433.50793 809.00781 432.0918 C 814.07048 428.40661 817.19414 423.17985 817.86523 417.27539 C 818.11623 415.06721 818.1217 344.31052 817.87109 342.02148 C 817.60028 339.54797 817.14254 337.94035 815.90039 335.10156 C 815.27414 333.67035 813.4477 331.13085 811.94531 329.60352 C 807.48779 325.07194 801.15101 322.76556 794.90625 323.40234 C 790.10686 323.89174 785.81549 325.85521 782.40039 329.125 C 779.32866 332.06604 777.1982 335.85076 776.2793 339.99609 L 775.85547 341.9043 L 775.78906 357.69336 L 775.7207 373.48438 L 771.62695 370.04688 C 767.11833 366.26277 741.49073 344.84674 724.48438 330.65234 C 718.50802 325.66416 713.28167 321.41595 712.87109 321.21094 C 711.8023 320.67722 709.93112 320.68224 708.89062 321.22266 C 707.86713 321.75426 707.08908 322.5182 706.66992 323.40625 L 706.31836 324.1543 L 706.23633 346.77148 L 706.15234 369.39062 L 689.39648 355.38672 C 653.73073 325.5795 648.89467 321.57155 648.17188 321.21094 C 647.62556 320.93839 646.89217 320.80546 646.15625 320.8125 z M 797.60352 332.72852 C 801.0058 332.92491 804.23197 334.58078 806.25391 337.32812 C 807.19587 338.60801 807.48495 339.14807 808.07422 340.73242 L 808.50977 341.9043 L 808.55664 378.89844 C 808.59058 405.38374 808.55137 416.19985 808.41992 416.9707 C 808.02678 419.276 806.52027 421.93784 804.67773 423.58008 C 803.47351 424.65338 801.51484 425.67916 799.86328 426.10156 C 797.986 426.58169 795.50797 426.53847 793.66211 425.99414 C 791.60038 425.38615 790.31273 424.60184 788.67773 422.95898 C 787.11709 421.39085 786.33713 420.09735 785.67188 417.9668 L 785.28516 416.72266 L 785.28516 379.5625 L 785.28516 342.40234 L 785.67383 341.1582 C 786.33952 339.0322 787.1216 337.73343 788.67969 336.17383 C 790.34893 334.50295 792.01705 333.55164 794.17969 333.0332 C 795.31489 332.76106 796.46942 332.66305 797.60352 332.72852 z M 651.07617 335.68359 C 651.14948 335.68359 696.63625 373.59843 699.46289 376.01562 L 700.57031 376.96289 L 698.21875 378.93359 C 696.92538 380.01789 685.9002 389.22537 673.71875 399.39453 C 661.53728 409.56369 651.44029 417.9861 651.28125 418.11133 C 651.00641 418.32769 650.99219 416.28476 650.99219 377.01172 C 650.99219 354.28127 651.03047 335.68359 651.07617 335.68359 z M 715.82422 335.71484 C 716.12022 335.92936 759.11336 371.77413 763.16406 375.18359 L 765.26562 376.95312 L 763.41406 378.51172 C 762.39538 379.36987 751.37057 388.57272 738.91602 398.96094 C 726.46148 409.34916 716.10373 418.00014 715.89844 418.18555 L 715.52539 418.52148 L 715.52539 377.00977 C 715.52539 337.03894 715.53619 335.50612 715.82422 335.71484 z "
       id="path867"
       d="m 646.16992,322.25977 c -0.55462,0.005 -1.11238,0.13923 -1.38281,0.27734 -0.52031,0.26572 -1.23968,0.98801 -1.57227,1.65625 0.17688,-0.35542 -0.0683,0.35979 -0.11328,7.26367 -0.045,6.90389 -0.0588,20.03895 -0.0801,45.20313 -0.0203,23.9666 -0.0267,37.112 0.004,44.35156 0.0153,3.61978 0.0412,5.76462 0.0762,7.0293 0.035,1.26467 0.14401,1.72603 0.0742,1.50976 0.41572,1.28843 1.60183,2.14914 3.00586,2.14844 1.02565,-5.7e-4 1.21533,-0.0655 2.02148,-0.6836 -0.0488,0.0374 0.52042,-0.42346 1.28907,-1.06054 0.76864,-0.63708 1.83834,-1.5272 3.13086,-2.60352 2.58503,-2.15264 6.06044,-5.05119 9.80078,-8.17773 14.14552,-11.82422 24.82195,-20.74071 31.97461,-26.70117 3.57633,-2.98023 6.27197,-5.22111 8.08008,-6.71875 0.90405,-0.74883 1.58668,-1.31121 2.04882,-1.68946 0.23108,-0.18912 0.40546,-0.33107 0.53125,-0.43164 0.0629,-0.0503 0.1131,-0.089 0.16016,-0.125 0.0235,-0.018 0.0435,-0.0354 0.082,-0.0625 0.0193,-0.0135 0.0402,-0.0282 0.0937,-0.0605 0.0268,-0.0162 0.0584,-0.0372 0.13281,-0.0723 0.0744,-0.0351 0.6188,-0.13867 0.61914,-0.13867 2e-4,0 1.22442,0.67547 1.22461,0.67578 2e-4,3.1e-4 0.13522,0.27127 0.15625,0.33789 0.0421,0.13324 0.0446,0.17572 0.0508,0.21484 0.0124,0.0783 0.0134,0.10622 0.0156,0.13477 0.005,0.0571 0.006,0.0948 0.008,0.14258 0.004,0.0955 0.007,0.21323 0.01,0.36719 0.006,0.30791 0.0102,0.75171 0.0156,1.32031 0.0108,1.1372 0.0212,2.77488 0.0293,4.79687 0.0163,4.04399 0.0273,9.61958 0.0273,15.75196 0,12.39187 -0.0144,18.23639 0.11133,21.03515 0.0629,1.39939 0.18533,2.01838 0.24024,2.16992 0.0549,0.15154 0.0335,0.0584 0.4082,0.4961 0.31104,0.36338 1.51429,1.02673 2.15039,1.11328 0.40944,0.0557 1.77767,-0.29793 2.30078,-0.69922 -0.0791,0.0607 0.63674,-0.52061 1.60938,-1.32813 0.97264,-0.80751 2.33494,-1.94233 3.98828,-3.32031 3.30667,-2.75596 7.77486,-6.48442 12.60351,-10.52148 9.65871,-8.07528 23.4273,-19.57907 30.59961,-25.56445 l 13.03907,-10.88086 a 1.4466999,1.4466999 0 0 1 2.375,1.10351 l 0.0937,18.26367 c 0.0846,16.48546 0.13922,18.36636 0.35743,19.48633 1.13467,5.82355 4.91679,11.03866 9.86328,13.68164 2.43043,1.29861 3.86971,1.80167 6.49414,2.27149 1.38253,0.24749 5.55639,0.13542 7.22851,-0.23438 2.36905,-0.52393 5.29252,-1.81641 7.00977,-3.0664 4.7654,-3.46881 7.64646,-8.31137 8.27148,-13.81055 -0.009,0.0772 0.0216,-0.41972 0.0352,-1.05078 0.0136,-0.63106 0.0272,-1.50179 0.0391,-2.57422 0.0236,-2.14486 0.0427,-5.09782 0.0586,-8.58594 0.0319,-6.97623 0.0481,-16.09865 0.0488,-25.22266 7e-4,-9.124 -0.0141,-18.24997 -0.0449,-25.23632 -0.0154,-3.49318 -0.0353,-6.45104 -0.0586,-8.60352 -0.0116,-1.07624 -0.0236,-1.95228 -0.0371,-2.58789 -0.0135,-0.63561 -0.0415,-1.12775 -0.0352,-1.07031 -0.25899,-2.36562 -0.6453,-3.72344 -1.85937,-6.49805 -0.4641,-1.06064 -2.3089,-3.69076 -3.66016,-5.06445 -4.14896,-4.2179 -10.0655,-6.36639 -15.86133,-5.77539 -4.4975,0.45861 -8.46553,2.27691 -11.65234,5.32812 -2.86529,2.74338 -4.85206,6.27294 -5.70898,10.13867 a 1.4466999,1.4466999 0 0 1 0,0.002 l -0.39063,1.75586 -0.0645,15.63281 -0.0684,15.79101 a 1.4466999,1.4466999 0 0 1 -2.37695,1.10157 l -4.09375,-3.4375 c -4.49965,-3.77658 -30.13494,-25.19678 -47.14063,-39.39063 -2.98402,-2.49062 -5.78087,-4.79833 -7.87891,-6.5039 -1.04901,-0.85279 -1.92382,-1.55575 -2.55468,-2.05274 -0.31544,-0.24849 -0.56996,-0.4464 -0.74805,-0.58008 -0.17809,-0.13367 -0.44359,-0.26749 -0.15039,-0.12109 -0.2309,-0.11531 -0.79519,-0.24768 -1.34961,-0.24609 -0.55442,0.002 -1.11125,0.13852 -1.31836,0.24609 -0.78654,0.40853 -1.31722,0.96481 -1.57812,1.51758 l -0.21485,0.45703 -0.0801,22.29687 -0.084,22.61914 a 1.4466999,1.4466999 0 0 1 -2.375,1.10352 l -16.75586,-14.00391 c -17.83267,-14.90343 -27.95793,-23.35778 -33.71094,-28.12695 -2.8765,-2.38458 -4.66106,-3.84723 -5.75976,-4.72852 -1.09871,-0.88128 -1.67319,-1.23481 -1.47266,-1.13476 -0.2517,-0.12557 -0.80291,-0.25138 -1.35547,-0.24609 z m 151.51758,9.02539 c 3.81678,0.22031 7.43954,2.07006 9.73242,5.18554 0.97336,1.32256 1.40405,2.12925 2.00977,3.75782 l 0.43554,1.17187 a 1.4466999,1.4466999 0 0 1 0.0918,0.50195 l 0.0469,36.99414 c 0.017,13.24362 0.0142,22.56942 -0.008,28.68555 -0.011,3.05807 -0.0271,5.31338 -0.0488,6.85938 -0.0109,0.773 -0.023,1.36784 -0.0371,1.80468 -0.0141,0.43685 -0.002,0.60002 -0.0645,0.9668 a 1.4466999,1.4466999 0 0 1 0,0.002 c -0.46507,2.72709 -2.07531,5.54707 -4.20508,7.44532 -1.44408,1.28708 -3.48773,2.35007 -5.41796,2.84375 -2.19353,0.56101 -4.80592,0.51475 -6.96875,-0.12305 -2.22873,-0.65724 -3.86107,-1.65349 -5.60157,-3.40234 -1.67121,-1.67924 -2.64985,-3.30148 -3.36132,-5.58008 a 1.4466999,1.4466999 0 0 1 0,-0.002 l -0.38672,-1.24414 a 1.4466999,1.4466999 0 0 1 -0.0664,-0.42968 V 379.5625 342.40234 a 1.4466999,1.4466999 0 0 1 0.0664,-0.43164 l 0.38867,-1.24414 c 0.71203,-2.274 1.69245,-3.90177 3.36328,-5.57422 1.81577,-1.81755 3.79679,-2.95274 6.18555,-3.52539 1.27485,-0.30562 2.57228,-0.41531 3.8457,-0.34179 z m -146.61133,2.95117 c 1.13695,0.21657 1.94704,1.11801 1.44336,0.75781 0.34021,0.28021 0.83609,0.68776 1.46485,1.20898 1.2575,1.04245 3.05118,2.53367 5.21093,4.33008 4.31951,3.59283 10.10137,8.40816 15.96875,13.29883 11.73476,9.78133 23.75135,19.81244 25.23828,21.08399 l 1.10743,0.94726 a 1.4466999,1.4466999 0 0 1 -0.01,2.20899 l -2.35156,1.9707 c -1.30529,1.09429 -12.32038,10.29362 -24.50196,20.46289 -6.09085,5.08468 -11.6615,9.73243 -15.72851,13.125 -2.03351,1.69629 -3.69194,3.07854 -4.85156,4.04492 -0.57981,0.48319 -1.03392,0.86236 -1.34961,1.125 -0.3157,0.26264 -0.34766,0.29502 -0.54102,0.44727 -0.11785,0.0928 -0.31366,0.24452 -0.69336,0.30468 -0.3797,0.0602 -0.90695,-0.10023 -1.17578,-0.32421 -0.53765,-0.44798 -0.48329,-0.70676 -0.52344,-0.875 -0.0803,-0.3365 -0.0859,-0.55753 -0.10742,-0.97461 -0.043,-0.83416 -0.0689,-2.29547 -0.0879,-4.99805 -0.038,-5.40517 -0.043,-15.73245 -0.043,-35.36914 0,-11.36604 0.0101,-21.6992 0.0254,-29.19141 0.008,-3.7461 0.0173,-6.78163 0.0274,-8.88281 0.005,-1.05059 0.0101,-1.86611 0.0156,-2.42383 0.003,-0.27886 0.005,-0.49327 0.008,-0.64453 0.001,-0.0756 0.004,-0.13269 0.006,-0.1875 0.001,-0.0274 0.002,-0.0511 0.006,-0.0977 0.002,-0.0233 0.002,-0.0457 0.0137,-0.12109 0.006,-0.0377 0.0486,-0.21232 0.0488,-0.21289 1.8e-4,-5.7e-4 1.38068,-1.01367 1.38086,-1.01367 z m 65.05469,0.0566 c 0.48391,0.089 1.52359,1.01799 1.15234,0.75 0.33334,0.27615 0.81173,0.67381 1.41797,1.17773 1.21248,1.00786 2.93206,2.43807 5,4.16016 4.13588,3.44418 9.66458,8.05254 15.31055,12.75976 11.29193,9.41446 23.04038,19.21546 25.08398,20.93555 l 2.10157,1.76953 a 1.4466999,1.4466999 0 0 1 0,2.21485 l -1.85157,1.55859 v -0.002 c -1.0545,0.88833 -12.0491,10.06665 -24.5039,20.45508 -6.22707,5.19393 -11.93001,9.95335 -16.10157,13.4375 -2.08577,1.74207 -3.7885,3.16513 -4.98242,4.16406 -0.59696,0.49946 -1.06643,0.89231 -1.39258,1.16601 -0.32614,0.27371 -0.64128,0.54929 -0.49804,0.41993 l -0.37305,0.33593 a 1.4466999,1.4466999 0 0 1 -2.41602,-1.07422 v -41.51171 c 0,-19.98555 0.004,-30.35812 0.043,-35.72461 0.0194,-2.68325 0.0446,-4.10242 0.0899,-4.90821 0.0226,-0.40289 0.0218,-0.60427 0.125,-0.97461 0.0516,-0.18516 0.0523,-0.55253 0.69531,-0.9375 0.32151,-0.19248 0.80157,-0.24231 1.09961,-0.17187 z"
       transform="matrix(1.123984,0,0,1.123984,-326.83266,-227.0222)" />
  </g>
</svg>
