<?xml version="1.0" encoding="UTF-8" standalone="no"?>
<!-- Created with Inkscape (http://www.inkscape.org/) -->

<svg
   xmlns:dc="http://purl.org/dc/elements/1.1/"
   xmlns:cc="http://creativecommons.org/ns#"
   xmlns:rdf="http://www.w3.org/1999/02/22-rdf-syntax-ns#"
   xmlns:svg="http://www.w3.org/2000/svg"
   xmlns="http://www.w3.org/2000/svg"
   xmlns:sodipodi="http://sodipodi.sourceforge.net/DTD/sodipodi-0.dtd"
   xmlns:inkscape="http://www.inkscape.org/namespaces/inkscape"
   width="200mm"
   height="200mm"
   viewBox="0 0 200 200"
   version="1.1"
   id="svg8"
   sodipodi:docname="direct.svg"
   inkscape:version="0.92.2 (5c3e80d, 2017-08-06)">
  <defs
     id="defs2" />
  <sodipodi:namedview
     id="base"
     pagecolor="#ffffff"
     bordercolor="#666666"
     borderopacity="1.0"
     inkscape:pageopacity="0.0"
     inkscape:pageshadow="2"
     inkscape:zoom="0.49497474"
     inkscape:cx="363.10945"
     inkscape:cy="620.62914"
     inkscape:document-units="mm"
     inkscape:current-layer="layer1"
     showgrid="false"
     fit-margin-top="0"
     fit-margin-left="0"
     fit-margin-right="0"
     fit-margin-bottom="0"
     inkscape:window-width="1920"
     inkscape:window-height="1051"
     inkscape:window-x="-9"
     inkscape:window-y="-9"
     inkscape:window-maximized="1" />
  <metadata
     id="metadata5">
    <rdf:RDF>
      <cc:Work
         rdf:about="">
        <dc:format>image/svg+xml</dc:format>
        <dc:type
           rdf:resource="http://purl.org/dc/dcmitype/StillImage" />
        <dc:title />
      </cc:Work>
    </rdf:RDF>
  </metadata>
  <g
     inkscape:label="Layer 1"
     inkscape:groupmode="layer"
     id="layer1"
     transform="translate(-392.58436,-97.874616)">
    <g
       id="g863"
       transform="matrix(1.0351341,0,0,1.0351341,37.066735,-4.7875476)" />
    <path
       id="path882"
       d="m 465.35892,123.96836 -6.35887,-9.52478 1.86178,-2.77294 1.86179,-2.77297 6.40838,9.59897 6.40838,9.59896 -1.79199,2.69877 c -0.9856,1.48432 -1.84568,2.69878 -1.9113,2.69878 -0.0656,0 -2.98079,-4.28617 -6.47817,-9.52479 z m 50.25058,6.82527 -1.79249,-2.69951 6.46764,-9.68323 6.46762,-9.68323 1.85596,2.7787 1.85594,2.77869 -6.41179,9.60405 c -3.52648,5.28222 -6.46546,9.60405 -6.53108,9.60405 -0.0656,0 -0.92593,-1.21479 -1.9118,-2.69952 z m -23.51876,-13.6445 v -13.64812 h 2.58846 2.58845 v 13.64812 13.64809 h -2.58845 -2.58846 z m -28.25142,174.77685 c 0.3917,-0.30812 0.83899,-1.01678 0.99397,-1.57481 0.17921,-0.64521 0.28235,-7.23581 0.28332,-18.10269 l 0.001,-17.08811 1.31305,-1.26181 c 0.72217,-0.69398 2.09058,-1.87802 3.04089,-2.6312 3.62753,-2.87497 7.61642,-7.5925 10.09486,-11.93887 1.09729,-1.92429 2.34994,-5.10499 3.13671,-7.96471 l 0.62746,-2.28063 V 205.66648 182.2498 l -0.58958,-1.09552 c -0.77576,-1.44148 -1.591,-2.17242 -3.23315,-2.89882 -1.15701,-0.5118 -1.65838,-0.57391 -3.49185,-0.43252 -2.58424,0.19929 -5.51927,1.17525 -7.51073,2.49752 l -1.4705,0.97635 v -15.97443 c 0,-10.32224 -0.10534,-16.54944 -0.2977,-17.59953 -0.64142,-3.50153 -3.53402,-7.09209 -6.74522,-8.37281 -2.24804,-0.89657 -6.45579,-0.90826 -8.39761,-0.0233 -0.73466,0.33481 -1.35972,0.60873 -1.38904,0.60873 -0.0293,0 -0.3187,-0.58541 -0.64308,-1.30092 -0.71639,-1.5802 -2.78062,-3.98819 -4.17157,-4.86626 -1.53793,-0.97085 -4.27215,-1.77531 -6.03397,-1.77531 -1.7451,0 -4.61546,0.79814 -5.86604,1.63112 -1.60499,1.06906 -3.32957,3.02652 -4.11591,4.67175 -0.57421,1.20137 -0.9183,1.63329 -1.22058,1.53211 -0.23153,-0.0775 -1.16042,-0.40688 -2.06423,-0.73196 -1.35149,-0.48612 -2.0425,-0.56683 -3.8917,-0.45455 -4.1812,0.25386 -7.47306,2.42951 -9.31685,6.15766 l -1.03317,2.08907 -0.0918,4.45295 -0.0918,4.45295 -1.27758,-0.49872 c -2.81949,-1.10062 -6.3068,-0.89128 -9.12789,0.54794 -1.47715,0.75358 -3.60073,2.75644 -4.43874,4.18637 -1.63115,2.78336 -1.57391,1.48035 -1.47118,33.49078 l 0.0939,29.2635 0.75297,3.42349 c 1.03892,4.72349 2.12474,7.78385 4.14319,11.6774 1.80704,3.48573 2.93621,5.16429 5.8087,8.63493 2.9264,3.53576 2.67661,1.34539 2.7645,24.24161 l 0.0769,20.04175 0.78611,0.84154 c 0.67122,0.71855 0.98273,0.84155 2.13133,0.84155 1.1435,0 1.46583,-0.12588 2.14962,-0.83952 l 0.80442,-0.8395 0.0741,-18.1951 c 0.0408,-10.00731 0.12064,-18.1951 0.17741,-18.1951 0.0568,0 0.94776,0.51418 1.97993,1.14262 4.06899,2.47744 8.3987,4.14246 9.78014,3.76104 1.73899,-0.48015 2.63807,-2.0973 2.12257,-3.81786 -0.3606,-1.20359 -0.48487,-1.29028 -4.13763,-2.88656 -5.90847,-2.58204 -10.65754,-6.10096 -14.63684,-10.84544 -4.3666,-5.20626 -7.08381,-11.29115 -8.41742,-18.84991 -0.28506,-1.6157 -0.36242,-8.10399 -0.36242,-30.40059 V 164.1738 l 0.64007,-1.02947 c 2.01997,-3.24889 6.92316,-3.18629 8.81171,0.11251 l 0.68176,1.19084 0.13694,16.47943 0.13694,16.47944 0.66003,0.7023 c 0.85567,0.91045 2.1288,1.14265 3.3857,0.61749 1.94471,-0.81256 1.84267,0.63051 1.84267,-26.0596 0,-23.26921 0.016,-24.02045 0.53574,-25.03909 1.4925,-2.92553 4.86362,-3.83176 7.49429,-2.01463 2.07712,1.43479 1.95063,0.10154 2.1035,22.16982 0.13519,19.5146 0.14428,19.77783 0.70933,20.54094 1.20022,1.62094 3.16011,1.83398 4.69871,0.51076 l 0.75425,-0.64866 0.13693,-23.23509 c 0.15259,-25.88976 0.0151,-24.16337 2.0475,-25.71354 2.89906,-2.21122 7.16756,-0.78183 8.04258,2.69322 0.22762,0.90396 0.31734,7.56927 0.31734,23.57605 v 22.31581 l 0.7012,0.83333 c 0.87351,1.03811 2.14809,1.3159 3.48145,0.75878 1.92216,-0.80312 1.84269,0.1199 1.84269,-21.40365 0,-18.64804 0.0189,-19.37019 0.53574,-20.38314 1.05181,-2.06171 3.21495,-3.2496 5.31229,-2.91723 1.49392,0.23674 3.10311,1.37584 3.75853,2.66054 0.51041,1.0005 0.52697,1.9622 0.52697,30.60339 v 29.57044 l -1.49492,0.43459 c -10.24233,2.97752 -16.80903,10.61105 -19.17688,22.29237 -0.54428,2.68508 -0.33277,3.54698 1.08552,4.42353 1.08347,0.66963 2.12933,0.70081 3.1564,0.0941 0.92298,-0.54521 1.21865,-1.14121 1.77759,-3.58313 1.03496,-4.52161 2.37409,-7.57908 4.66,-10.63961 2.82097,-3.77688 7.72053,-6.6223 12.25678,-7.11811 1.97501,-0.21586 3.0524,-0.68787 3.54733,-1.5541 0.25926,-0.45377 0.3861,-3.17926 0.4874,-10.47305 l 0.13694,-9.85965 0.72863,-1.55431 c 1.58942,-3.39051 4.51855,-5.54692 8.24988,-6.07351 l 1.03602,-0.1462 -0.0886,22.78467 c -0.0991,25.46576 0.0251,23.80625 -2.11376,28.26227 -3.39289,7.06879 -9.97251,13.49293 -16.95813,16.55744 -1.11384,0.48862 -3.25645,1.19231 -4.76136,1.56373 -3.21306,0.79304 -3.89643,1.17998 -4.313,2.44222 -0.56164,1.70179 0.37912,3.42703 2.1449,3.93345 0.88443,0.25365 4.24162,-0.35253 6.55197,-1.18305 l 1.15779,-0.4162 0.0746,16.53751 0.0746,16.53751 0.80441,0.83948 c 0.67311,0.70247 1.01355,0.8395 2.08563,0.8395 0.87601,0 1.50647,-0.17719 1.99342,-0.56022 z m 57.74805,0 c -0.39171,-0.30812 -0.839,-1.01678 -0.99398,-1.57481 -0.1792,-0.64521 -0.28234,-7.23581 -0.28332,-18.10269 l -0.001,-17.08811 -1.31305,-1.26181 c -0.72217,-0.69398 -2.09058,-1.87802 -3.04089,-2.6312 -3.62753,-2.87497 -7.61641,-7.5925 -10.09486,-11.93887 -1.09729,-1.92429 -2.34994,-5.10499 -3.13671,-7.96471 l -0.62746,-2.28063 V 205.66648 182.2498 l 0.58958,-1.09552 c 0.77576,-1.44148 1.591,-2.17242 3.23315,-2.89882 1.15701,-0.5118 1.65838,-0.57391 3.49185,-0.43252 2.58424,0.19929 5.51927,1.17525 7.51074,2.49752 l 1.4705,0.97635 v -15.97443 c 0,-10.32224 0.10533,-16.54944 0.29769,-17.59953 0.64142,-3.50153 3.53402,-7.09209 6.74523,-8.37281 2.24804,-0.89657 6.45578,-0.90826 8.3976,-0.0233 0.73466,0.33481 1.35972,0.60873 1.38904,0.60873 0.0293,0 0.31871,-0.58541 0.64309,-1.30092 0.71638,-1.5802 2.78062,-3.98819 4.17157,-4.86626 1.53793,-0.97085 4.27214,-1.77531 6.03396,-1.77531 1.7451,0 4.61547,0.79814 5.86604,1.63112 1.605,1.06906 3.32957,3.02652 4.11591,4.67175 0.57421,1.20137 0.9183,1.63329 1.22058,1.53211 0.23153,-0.0775 1.16043,-0.40688 2.06423,-0.73196 1.3515,-0.48612 2.0425,-0.56683 3.8917,-0.45455 4.1812,0.25386 7.47306,2.42951 9.31685,6.15766 l 1.03317,2.08907 0.0918,4.45295 0.0918,4.45295 1.27759,-0.49872 c 2.81948,-1.10062 6.30679,-0.89128 9.12788,0.54794 1.47715,0.75358 3.60074,2.75644 4.43874,4.18637 1.63115,2.78336 1.57391,1.48035 1.47118,33.49078 l -0.0939,29.2635 -0.75298,3.42349 c -1.03891,4.72349 -2.12474,7.78385 -4.14319,11.6774 -1.80704,3.48573 -2.93621,5.16429 -5.80869,8.63493 -2.92641,3.53576 -2.67662,1.34539 -2.7645,24.24161 l -0.0769,20.04175 -0.78611,0.84154 c -0.67122,0.71855 -0.98272,0.84155 -2.13133,0.84155 -1.1435,0 -1.46583,-0.12588 -2.14962,-0.83952 l -0.80441,-0.8395 -0.0741,-18.1951 c -0.0408,-10.00731 -0.12063,-18.1951 -0.17741,-18.1951 -0.0568,0 -0.94776,0.51418 -1.97993,1.14262 -4.06899,2.47744 -8.3987,4.14246 -9.78013,3.76104 -1.739,-0.48015 -2.63808,-2.0973 -2.12258,-3.81786 0.3606,-1.20359 0.48487,-1.29028 4.13763,-2.88656 5.90847,-2.58204 10.65754,-6.10096 14.63685,-10.84544 4.3666,-5.20626 7.0838,-11.29115 8.41742,-18.84991 0.28505,-1.6157 0.36241,-8.10399 0.36241,-30.40059 V 164.1738 l -0.64007,-1.02947 c -2.01997,-3.24889 -6.92316,-3.18629 -8.81171,0.11251 l -0.68176,1.19084 -0.13694,16.47943 -0.13694,16.47944 -0.66003,0.7023 c -0.85567,0.91045 -2.12879,1.14265 -3.38569,0.61749 -1.94472,-0.81256 -1.84268,0.63051 -1.84268,-26.0596 0,-23.26921 -0.016,-24.02045 -0.53574,-25.03909 -1.4925,-2.92553 -4.86362,-3.83176 -7.49429,-2.01463 -2.07712,1.43479 -1.95063,0.10154 -2.1035,22.16982 -0.13518,19.5146 -0.14427,19.77783 -0.70933,20.54094 -1.20022,1.62094 -3.16011,1.83398 -4.6987,0.51076 l -0.75425,-0.64866 -0.13694,-23.23509 c -0.15259,-25.88976 -0.0151,-24.16337 -2.0475,-25.71354 -2.89906,-2.21122 -7.16755,-0.78183 -8.04257,2.69322 -0.22763,0.90396 -0.31735,7.56927 -0.31735,23.57605 v 22.31581 l -0.7012,0.83333 c -0.8735,1.03811 -2.14808,1.3159 -3.48145,0.75878 -1.92215,-0.80312 -1.84269,0.1199 -1.84269,-21.40365 0,-18.64804 -0.0189,-19.37019 -0.53574,-20.38314 -1.05181,-2.06171 -3.21495,-3.2496 -5.31229,-2.91723 -1.49391,0.23674 -3.10311,1.37584 -3.75853,2.66054 -0.51041,1.0005 -0.52696,1.9622 -0.52696,30.60339 v 29.57044 l 1.49492,0.43459 c 10.24233,2.97752 16.80902,10.61105 19.17687,22.29237 0.54428,2.68508 0.33278,3.54698 -1.08551,4.42353 -1.08348,0.66963 -2.12934,0.70081 -3.15641,0.0941 -0.92297,-0.54521 -1.21865,-1.14121 -1.77759,-3.58313 -1.03496,-4.52161 -2.37409,-7.57908 -4.66,-10.63961 -2.82097,-3.77688 -7.72053,-6.6223 -12.25677,-7.11811 -1.97502,-0.21586 -3.05241,-0.68787 -3.54734,-1.5541 -0.25926,-0.45377 -0.3861,-3.17926 -0.4874,-10.47305 l -0.13694,-9.85965 -0.72863,-1.55431 c -1.58942,-3.39051 -4.51854,-5.54692 -8.24988,-6.07351 l -1.03602,-0.1462 0.0886,22.78467 c 0.0991,25.46576 -0.0251,23.80625 2.11377,28.26227 3.39289,7.06879 9.9725,13.49293 16.95812,16.55744 1.11385,0.48862 3.25645,1.19231 4.76136,1.56373 3.21307,0.79304 3.89643,1.17998 4.313,2.44222 0.56164,1.70179 -0.37912,3.42703 -2.1449,3.93345 -0.88443,0.25365 -4.24162,-0.35253 -6.55197,-1.18305 l -1.15778,-0.4162 -0.0746,16.53751 -0.0746,16.53751 -0.80441,0.83948 c -0.67311,0.70247 -1.01354,0.8395 -2.08563,0.8395 -0.876,0 -1.50646,-0.17719 -1.99342,-0.56022 z" />
  </g>
</svg>
