<?xml version="1.0" encoding="UTF-8" standalone="no"?>
<!-- Created with Inkscape (http://www.inkscape.org/) -->

<svg
   xmlns:dc="http://purl.org/dc/elements/1.1/"
   xmlns:cc="http://creativecommons.org/ns#"
   xmlns:rdf="http://www.w3.org/1999/02/22-rdf-syntax-ns#"
   xmlns:svg="http://www.w3.org/2000/svg"
   xmlns="http://www.w3.org/2000/svg"
   xmlns:sodipodi="http://sodipodi.sourceforge.net/DTD/sodipodi-0.dtd"
   xmlns:inkscape="http://www.inkscape.org/namespaces/inkscape"
   width="200mm"
   height="200mm"
   viewBox="0 0 200 200"
   version="1.1"
   id="svg8"
   inkscape:version="0.92.2 (5c3e80d, 2017-08-06)"
   sodipodi:docname="hand.svg">
  <defs
     id="defs2" />
  <sodipodi:namedview
     id="base"
     pagecolor="#ffffff"
     bordercolor="#666666"
     borderopacity="1.0"
     inkscape:pageopacity="0.0"
     inkscape:pageshadow="2"
     inkscape:zoom="0.49497474"
     inkscape:cx="426.44587"
     inkscape:cy="544.4769"
     inkscape:document-units="mm"
     inkscape:current-layer="layer1"
     showgrid="false"
     fit-margin-top="0"
     fit-margin-left="0"
     fit-margin-right="0"
     fit-margin-bottom="0"
     inkscape:window-width="1920"
     inkscape:window-height="1051"
     inkscape:window-x="-9"
     inkscape:window-y="-9"
     inkscape:window-maximized="1" />
  <metadata
     id="metadata5">
    <rdf:RDF>
      <cc:Work
         rdf:about="">
        <dc:format>image/svg+xml</dc:format>
        <dc:type
           rdf:resource="http://purl.org/dc/dcmitype/StillImage" />
        <dc:title></dc:title>
      </cc:Work>
    </rdf:RDF>
  </metadata>
  <g
     inkscape:label="Layer 1"
     inkscape:groupmode="layer"
     class="icon"
     transform="translate(-392.58436,-97.874616)">
    <path
       d="m 464.064,293.39678 c -0.46583,-0.36642 -0.99775,-1.20917 -1.18206,-1.87278 -0.2131,-0.76729 -0.33576,-8.6049 -0.33692,-21.52788 l -0.001,-20.32131 -1.56148,-1.50057 c -0.85882,-0.82528 -2.48614,-2.23335 -3.61626,-3.12903 -4.31388,-3.41894 -9.05751,-9.02908 -12.00489,-14.19782 -1.30491,-2.28839 -2.79458,-6.0709 -3.73021,-9.47169 l -0.74618,-2.71216 v -27.8473 -27.84733 l 0.70114,-1.30279 c 0.92254,-1.71423 1.89203,-2.58347 3.84489,-3.44731 1.37592,-0.60863 1.97216,-0.6825 4.15253,-0.51435 3.07321,0.23699 6.56357,1.39762 8.93183,2.97007 l 1.74874,1.16108 v -18.99693 c 0,-12.2753 0.12526,-19.68074 0.35402,-20.92952 0.76278,-4.16404 4.20269,-8.43396 8.02148,-9.95702 2.67339,-1.0662 7.67728,-1.0801 9.98651,-0.0276 0.87366,0.39815 1.61699,0.7239 1.65185,0.7239 0.0348,0 0.37901,-0.69617 0.76477,-1.54707 0.85193,-1.87918 3.30673,-4.74279 4.96086,-5.787 1.82893,-1.15455 5.08048,-2.11122 7.17565,-2.11122 2.07528,0 5.48875,0.94916 6.97595,1.93975 1.90867,1.27134 3.95955,3.59916 4.89468,5.55569 0.68285,1.42867 1.09204,1.94232 1.45151,1.822 0.27534,-0.0922 1.37999,-0.48386 2.4548,-0.87045 1.60721,-0.57811 2.42896,-0.67408 4.62805,-0.54056 4.97232,0.30189 8.88702,2.8892 11.07968,7.32274 l 1.22865,2.48434 0.10919,5.29549 0.10919,5.29549 1.51931,-0.59308 c 3.35296,-1.30887 7.5001,-1.05992 10.85497,0.65161 1.75663,0.89616 4.28202,3.27798 5.27858,4.97847 1.93978,3.30999 1.87171,1.76044 1.74955,39.82753 l -0.11166,34.80041 -0.89544,4.07124 c -1.23549,5.61722 -2.52676,9.25661 -4.92712,13.88687 -2.14895,4.14526 -3.49177,6.14142 -6.90775,10.26873 -3.4801,4.20476 -3.18305,1.59995 -3.28757,28.82832 l -0.0914,23.83383 -0.93485,1.00077 c -0.79822,0.85451 -1.16866,1.00077 -2.5346,1.00077 -1.35986,0 -1.74318,-0.14971 -2.55635,-0.99836 l -0.95661,-0.99834 -0.0881,-21.63778 c -0.0485,-11.90076 -0.14346,-21.63776 -0.21097,-21.63776 -0.0676,0 -1.12709,0.61147 -2.35456,1.35881 -4.83888,2.9462 -9.98781,4.92626 -11.63062,4.47266 -2.06802,-0.57099 -3.13721,-2.49412 -2.52419,-4.54022 0.42883,-1.43132 0.57661,-1.53442 4.92051,-3.43273 7.02641,-3.07059 12.67404,-7.25531 17.40627,-12.89749 5.1928,-6.19133 8.42412,-13.42753 10.01006,-22.41648 0.339,-1.9214 0.43099,-9.63733 0.43099,-36.15264 v -33.70992 l -0.76117,-1.22426 c -2.40217,-3.86361 -8.23309,-3.78915 -10.47897,0.1338 l -0.81075,1.41615 -0.16285,19.5975 -0.16285,19.59749 -0.78491,0.83518 c -1.01758,1.08272 -2.53159,1.35886 -4.0263,0.73432 -2.31268,-0.9663 -2.19132,0.74981 -2.19132,-30.9903 0,-27.67195 -0.0191,-28.56533 -0.63712,-29.77671 -1.77489,-3.47906 -5.78386,-4.55676 -8.91227,-2.39581 -2.47013,1.70626 -2.31971,0.12076 -2.5015,26.36454 -0.16076,23.20694 -0.17157,23.51996 -0.84355,24.42747 -1.42731,1.92763 -3.75803,2.18098 -5.58773,0.6074 l -0.89696,-0.7714 -0.16285,-27.63137 c -0.18147,-30.78833 -0.018,-28.73529 -2.4349,-30.57876 -3.44758,-2.6296 -8.52373,-0.92977 -9.5643,3.20279 -0.2707,1.075 -0.37739,9.00145 -0.37739,28.03686 v 26.53814 l -0.83387,0.99101 c -1.03879,1.23454 -2.55453,1.56488 -4.14018,0.90235 -2.28584,-0.95508 -2.19133,0.14259 -2.19133,-25.4534 0,-22.17642 -0.0226,-23.03521 -0.63712,-24.23982 -1.25082,-2.4518 -3.82324,-3.86445 -6.31742,-3.46919 -1.77658,0.28153 -3.69025,1.63616 -4.46968,3.16395 -0.60699,1.18979 -0.62667,2.33346 -0.62667,36.39381 v 35.16542 l 1.77777,0.51682 c 12.18027,3.5409 19.98945,12.61875 22.80531,26.51028 0.64727,3.19312 0.39574,4.2181 -1.29091,5.26051 -1.28847,0.79632 -2.53222,0.8334 -3.75361,0.11189 -1.09762,-0.64837 -1.44924,-1.35714 -2.11394,-4.26109 -1.23078,-5.37715 -2.82328,-9.01311 -5.5417,-12.65272 -3.35472,-4.49151 -9.18132,-7.8753 -14.57587,-8.46492 -2.3487,-0.25671 -3.62995,-0.81801 -4.21852,-1.84814 -0.30832,-0.53963 -0.45915,-3.78081 -0.57962,-12.45466 l -0.16285,-11.72518 -0.86649,-1.84839 c -1.89015,-4.03202 -5.3735,-6.59644 -9.81084,-7.22267 l -1.23203,-0.17387 0.1054,27.09573 c 0.1178,30.28411 -0.0298,28.3106 2.5137,33.60974 4.03486,8.40627 11.85939,16.04591 20.16676,19.69025 1.32459,0.58107 3.8726,1.41791 5.66224,1.85961 3.82101,0.94308 4.63367,1.40324 5.12906,2.9043 0.66791,2.02378 -0.45084,4.07546 -2.55074,4.6777 -1.05176,0.30164 -5.04416,-0.41924 -7.79165,-1.4069 l -1.37685,-0.49494 -0.0888,19.66653 -0.0888,19.66656 -0.95662,0.99832 c -0.80046,0.83537 -1.20531,0.99833 -2.48025,0.99833 -1.04175,0 -1.79149,-0.21071 -2.37059,-0.66622 z"
       id="path855"
       inkscape:connector-curvature="0" />
  </g>
</svg>
